<svg xmlns="http://www.w3.org/2000/svg" width="155" height="105.35" viewBox="0 0 155 105.35"><g transform="translate(0)"><path d="M760.854,565.546c14.2-28.31-13.036-42.809-16.542-12.914a45.369,45.369,0,0,0-1.5-11.423c-1.727-7.56-11.11-13.039-15.591-5.386-2.369,4.742.773,11.394-1.952,15.888-1.719-11.309-16.287-8.656-14.753,2.691,1.152,5.452,6.262,8.624,10.341,11.09Z" transform="translate(-609.925 -460.196)" fill="#f2f2f2"/><path d="M720.443,596.263c7.208,2.636,16.216,7.077,16.947,16.783a.268.268,0,1,0,.534,0A15.676,15.676,0,0,0,734.2,604a23.479,23.479,0,0,0-8.175-6.018C725.44,597.831,719.314,594.564,720.443,596.263Z" transform="translate(-617.768 -508.907)" fill="#fff"/><path d="M808.478,536.189a60.23,60.23,0,0,1,6.813,31.174.268.268,0,1,0,.534,0,61.583,61.583,0,0,0-3.963-25.062c-.34-.706-3.087-8.146-3.385-6.112Z" transform="translate(-687.592 -463.029)" fill="#fff"/><path d="M909.58,551.733a97.01,97.01,0,0,0-6.441,28.137c-.03.386.5.384.534,0a97.063,97.063,0,0,1,4.275-21.947c-.006-.788,3.072-7.187,1.633-6.19Z" transform="translate(-762.552 -475.115)" fill="#fff"/><path d="M581.843,641.286c4.065-8.1-3.732-12.255-4.735-3.7a12.988,12.988,0,0,0-.43-3.27c-.494-2.164-3.18-3.732-4.463-1.542-.678,1.357.221,3.262-.559,4.548-.492-3.237-4.662-2.478-4.223.77.33,1.561,1.793,2.469,2.96,3.175Z" transform="translate(-496.685 -536.423)" fill="#f2f2f2"/><path d="M570.274,650.079c2.063.755,4.642,2.026,4.851,4.8a.077.077,0,1,0,.153,0,4.487,4.487,0,0,0-1.065-2.589,6.721,6.721,0,0,0-2.34-1.723C571.7,650.527,569.951,649.592,570.274,650.079Z" transform="translate(-498.929 -550.366)" fill="#fff"/><path d="M595.475,632.881a17.241,17.241,0,0,1,1.95,8.924.077.077,0,1,0,.153,0,17.629,17.629,0,0,0-1.134-7.174c-.1-.2-.884-2.332-.969-1.75Z" transform="translate(-518.917 -537.233)" fill="#fff"/><path d="M624.416,637.332a27.769,27.769,0,0,0-1.844,8.054c-.009.11.144.11.153,0a27.781,27.781,0,0,1,1.224-6.283C623.947,638.878,624.829,637.046,624.416,637.332Z" transform="translate(-540.375 -540.693)" fill="#fff"/><path d="M286.7,242.9h-58.9a.236.236,0,0,1,0-.469h58.9a.236.236,0,0,1,0,.469Z" transform="translate(-227.6 -238.442)" fill="#303030"/><path d="M3.538,0A3.783,3.783,0,0,1,7.076,3.988,3.783,3.783,0,0,1,3.538,7.975,3.783,3.783,0,0,1,0,3.988,3.783,3.783,0,0,1,3.538,0Z" transform="translate(43.453)" fill="#2dbb54"/><path d="M286.7,306.9h-58.9a.236.236,0,0,1,0-.469h58.9a.236.236,0,0,1,0,.469Z" transform="translate(-227.6 -287.431)" fill="#303030"/><path d="M3.538,0A3.783,3.783,0,0,1,7.076,3.988,3.783,3.783,0,0,1,3.538,7.975,3.783,3.783,0,0,1,0,3.988,3.783,3.783,0,0,1,3.538,0Z" transform="translate(10.572 15.012)" fill="#2dbb54"/><path d="M286.7,370.9h-58.9a.236.236,0,0,1,0-.469h58.9a.236.236,0,0,1,0,.469Z" transform="translate(-227.6 -336.419)" fill="#303030"/><path d="M3.538,0A3.783,3.783,0,0,1,7.076,3.988,3.783,3.783,0,0,1,3.538,7.975,3.783,3.783,0,0,1,0,3.988,3.783,3.783,0,0,1,3.538,0Z" transform="translate(24.515 30.024)" fill="#2dbb54"/><path d="M625.156,379.147a2.714,2.714,0,0,1,.195.353l10.969,1.39,1.6-2.429,3.568,2.234-3.14,5.9L624.9,382.621a2.141,2.141,0,0,1-2.621.48,2.7,2.7,0,0,1-1.326-2.593,2.579,2.579,0,0,1,1.683-2.316,2.2,2.2,0,0,1,2.517.954Z" transform="translate(-539.089 -342.282)" fill="#ffb8b8"/><path d="M696.809,362.706a1,1,0,0,1-.244-.172l-4.409-4.186a1.186,1.186,0,0,1-.355-.814,1.211,1.211,0,0,1,.291-.846l4-4.527a.915.915,0,0,1,1.3-.117l3.025,2.476a1.22,1.22,0,0,1,.317,1.4l-2.617,6.237a.959.959,0,0,1-1.306.553Z" transform="translate(-595.196 -322.179)" fill="#6c63ff"/><path d="M545.591,387.8l-2.633.807-4.016-11.062,3.886-1.192Z" transform="translate(-426.783 -288.08)" fill="#ffb8b8"/><path d="M7.754,2.895l5.525-.176-.107,3.705L4.522,6.7l.007-.241A3.561,3.561,0,0,1,7.754,2.895Z" transform="translate(105.64 99.566) rotate(-15.221)" fill="#303030"/><path d="M447.413,396.1h-2.729l-1.3-11.862h4.027Z" transform="translate(-351.113 -294.111)" fill="#ffb8b8"/><path d="M427.435,431.064h5.478V434.8h-8.576v-.243a3.313,3.313,0,0,1,3.1-3.492Z" transform="translate(-336.029 -329.954)" fill="#303030"/><path d="M19.321,13.16a5.042,5.042,0,0,1,5.467,5.467,6.728,6.728,0,0,1-6.161,6.161,5.042,5.042,0,0,1-5.467-5.467A6.728,6.728,0,0,1,19.321,13.16Z" transform="translate(73.577 17.505) rotate(-45)" fill="#ffb8b8"/><path d="M669.547,469.463h-3.729a1.064,1.064,0,0,1-1-1.059c-1.111-19.908-.461-34.189,2.045-44.942a1.3,1.3,0,0,1,.041-.138l.2-.563a1,1,0,0,1,.93-.71H675.7a.957.957,0,0,1,.76.394l1.042,1.37c.02.027.039.054.058.083,4.7,7.382,8.905,21.813,13.78,41.21a1.155,1.155,0,0,1-.659,1.384l-4.007,1.445a.969.969,0,0,1-1.207-.585l-10.4-24.31a.762.762,0,0,0-.823-.486.836.836,0,0,0-.65.748l-3.055,25.182a1.054,1.054,0,0,1-.992.976Z" transform="translate(-573.415 -375.932)" fill="#303030"/><path d="M685.549,355.541h-.031l-9.314-.332a1.054,1.054,0,0,1-.963-.992c-1.181-10.772,2.057-13.658,3.5-14.4a.866.866,0,0,0,.448-.688l.125-1.129a1.207,1.207,0,0,1,.2-.548,11.219,11.219,0,0,1,7.012-4.711.914.914,0,0,1,.768.2,1.161,1.161,0,0,1,.4.765l.188,1.621a.954.954,0,0,0,.159.424c4.732,6.972-.54,17.266-1.644,19.258h0A.983.983,0,0,1,685.549,355.541Z" transform="translate(-581.881 -307.557)" fill="#2dbb54"/><path d="M707.12,404.993a2.782,2.782,0,0,0,1.009-1.976,2.9,2.9,0,0,0-.7-2.141l1.73-23.548-5.151.8-.1,22.879a2.972,2.972,0,0,0,.032,3.6,2.214,2.214,0,0,0,3.174.389Z" transform="translate(-604.321 -341.699)" fill="#ffb8b8"/><path d="M708.141,358.984a.9.9,0,0,1-.285-.047l-5.53-1.833a1.043,1.043,0,0,1-.616-.584,1.26,1.26,0,0,1-.035-.906l2.046-5.959a.98.98,0,0,1,1.147-.7l3.653.9a1.111,1.111,0,0,1,.788,1.134l-.17,6.9a1.068,1.068,0,0,1-1,1.1Z" transform="translate(-602.962 -319.964)" fill="#2dbb54"/><path d="M652.114,672.9h-79.29a.236.236,0,0,1,0-.469h79.29a.236.236,0,0,1,0,.469Z" transform="translate(-500.815 -567.582)" fill="#3f3d56"/><path d="M735.539,260.272a28.3,28.3,0,0,1-.9-4.256,3.121,3.121,0,0,1,.675-2.327c1.017-1.086,2.746-.569,3.809.459a10.155,10.155,0,0,1,2.594,6.028c.29,2.259.162,4.556.232,6.838a15.209,15.209,0,0,0,1.391,6.591c1.032,1.964,2.947,3.472,4.966,3.3a3.311,3.311,0,0,0,2.188-1.045,3.082,3.082,0,0,0,.762-2.483,6.1,6.1,0,0,1-1.031,6.545,5.639,5.639,0,0,1-5.933,1.4,8.572,8.572,0,0,1-4.685-4.559,15.507,15.507,0,0,1-1.307-6.925,31.893,31.893,0,0,0,.042-5.485c-.275-1.806-1.278-3.64-2.859-4.065Z" transform="translate(-629.115 -246.598)" fill="#2f2e41"/><path d="M688.355,272.362a2.008,2.008,0,0,1-2.229,1.47,2.76,2.76,0,0,1-1.973-2.044,4.69,4.69,0,0,1,.292-3.085,4.479,4.479,0,0,1,2.438-2.448,3.18,3.18,0,0,1,3.182.573,1.263,1.263,0,0,1,.818-.964,1.994,1.994,0,0,1,1.227.02,5.138,5.138,0,0,1,2.814,2.307A10,10,0,0,1,696.2,271.9a8.927,8.927,0,0,1-.792,5.838c-.99,1.681-3.015,2.674-4.658,1.872a2.677,2.677,0,0,1,.421-1.7,5.446,5.446,0,0,0,.721-1.6,1.349,1.349,0,0,0-.6-1.5c-.431-.164-.891.1-1.345.134a1.427,1.427,0,0,1-1.32-.738,1.844,1.844,0,0,1-.095-1.657Z" transform="translate(-589.033 -256.314)" fill="#2f2e41"/></g></svg>