<svg xmlns="http://www.w3.org/2000/svg" xmlns:xlink="http://www.w3.org/1999/xlink" width="155" height="105.35" viewBox="0 0 155 105.35"><defs><linearGradient id="a" x1="0.5" y1="1" x2="0.5" gradientUnits="objectBoundingBox"><stop offset="0" stop-color="gray" stop-opacity="0.251"/><stop offset="0.54" stop-color="gray" stop-opacity="0.122"/><stop offset="1" stop-color="gray" stop-opacity="0.102"/></linearGradient></defs><rect width="155" height="1.191" transform="translate(0 104.159)" fill="#85848b"/><path d="M789.925,650.092c0,.916-5.079,3.586-11.111,3.586s-10.733-2.67-10.733-3.586,4.89-.621,10.928-.621S789.925,649.175,789.925,650.092Z" transform="translate(-667.124 -566.958)" fill="#504f60"/><path d="M789.925,653.72c0,.916-5.079,3.586-11.111,3.586s-10.733-2.67-10.733-3.586" transform="translate(-667.124 -570.586)" opacity="0.2"/><path d="M502.181,532.218a6.423,6.423,0,0,0,2.933-.1c.148-.048.31-.155.3-.31a.386.386,0,0,0-.066-.155,9.77,9.77,0,0,1-.886-1.775.155.155,0,0,0-.055-.081.132.132,0,0,0-.095,0c-.433.12-.806.413-1.236.539a1.675,1.675,0,0,1-.673.053c-.195-.023-.461-.193-.638-.171C501.86,530.892,502.106,531.525,502.181,532.218Z" transform="translate(-440.134 -465.891)" fill="#6c63ff"/><path d="M623.8,515.231a5.24,5.24,0,0,0,1.7-1.674.3.3,0,0,0,.046-.144.307.307,0,0,0-.055-.14,5.669,5.669,0,0,0-1.378-1.563,4.1,4.1,0,0,0-.768.745c-.162.18-.611.466-.616.741,0,.155.171.335.251.466.108.168.21.338.307.512A6.2,6.2,0,0,1,623.8,515.231Z" transform="translate(-543.231 -450.623)" fill="#6c63ff"/><path d="M472.85,540.325a.717.717,0,0,1-.118.45.575.575,0,0,1-.248.155c-1.369.515-2.954-.127-4.32.38-.281.1-.546.255-.828.354a4.31,4.31,0,0,1-1.034.193c-.483.048-.969.079-1.453.093a3.328,3.328,0,0,1-1.1-.1,1.33,1.33,0,0,1-.84-.7.7.7,0,0,1-.041-.5.543.543,0,0,1,.09-.155,1.31,1.31,0,0,1,.322-.275l.5-.342a3.329,3.329,0,0,1,.763-.425c.2-.068.411-.1.613-.155a4.184,4.184,0,0,0,1.75-1.374l.685-.768a.7.7,0,0,1,.238-.2.63.63,0,0,1,.3-.029,3.822,3.822,0,0,1,1.868.658,2.4,2.4,0,0,0,.461.286,1.575,1.575,0,0,0,1.288-.168c.176-.1.137-.155.211-.332s.254-.29.411-.129a.465.465,0,0,1,.1.2,5.783,5.783,0,0,1,.092,1.6.739.739,0,0,0,.03.248,1.421,1.421,0,0,0,.134.23.539.539,0,0,1,.028.059,1.653,1.653,0,0,1,.1.75Z" transform="translate(-406.965 -471.92)" fill="#514e7f"/><path d="M472.85,554.744a.717.717,0,0,1-.118.45.575.575,0,0,1-.248.155c-1.369.515-2.954-.127-4.32.38-.281.1-.546.255-.828.354a4.307,4.307,0,0,1-1.034.193c-.483.048-.969.079-1.453.093a3.33,3.33,0,0,1-1.1-.1,1.33,1.33,0,0,1-.84-.7.7.7,0,0,1-.041-.5.542.542,0,0,1,.09-.155c.08.175.137.408.188.492a.963.963,0,0,0,.641.486,1.52,1.52,0,0,0,.591-.079,28.475,28.475,0,0,0,3.751-.817,8.42,8.42,0,0,1,1.229-.5,9.19,9.19,0,0,1,1.329-.113c.7-.059,1.378-.281,2.068-.4A1.654,1.654,0,0,1,472.85,554.744Z" transform="translate(-406.965 -486.339)" fill="#464353"/><path d="M606.476,520.254a2.654,2.654,0,0,1-.756,1.416,9.106,9.106,0,0,0-1.059,1.217,9.93,9.93,0,0,1-.975,1.757,2.679,2.679,0,0,1-.591.442,4.026,4.026,0,0,1-.761.368,5.405,5.405,0,0,1-2.149.123,1.85,1.85,0,0,1-.682-.138,2.042,2.042,0,0,1-.284-.183,1.391,1.391,0,0,1-.443-.466.487.487,0,0,1-.043-.338.8.8,0,0,1,.205-.329,4.976,4.976,0,0,1,.52-.492,3.164,3.164,0,0,0,.676-.621,2.061,2.061,0,0,0,.261-.621,5.771,5.771,0,0,0,.19-1.188,3.946,3.946,0,0,1,.078-.795c.109-.41.4-.776.366-1.2a.314.314,0,0,1,.015-.182.239.239,0,0,1,.136-.089,2.309,2.309,0,0,1,.706-.172.8.8,0,0,1,.656.27c.1.127.167.31.315.36a.476.476,0,0,0,.224.009,1.817,1.817,0,0,0,1.034-.334,1.386,1.386,0,0,0,.428-.989c0-.141-.061-.289.148-.31.156-.022.281.155.36.264a3.738,3.738,0,0,1,.691,1.323.356.356,0,0,1,.131-.026.563.563,0,0,1,.471.253A1.028,1.028,0,0,1,606.476,520.254Z" transform="translate(-522.777 -455.741)" fill="#514e7f"/><path d="M606.8,528.627a2.654,2.654,0,0,1-.756,1.416,9.106,9.106,0,0,0-1.059,1.217,9.93,9.93,0,0,1-.975,1.757,2.681,2.681,0,0,1-.591.443,4.031,4.031,0,0,1-.761.368,5.4,5.4,0,0,1-2.149.123,1.851,1.851,0,0,1-.682-.138,2.042,2.042,0,0,1-.284-.183,1.391,1.391,0,0,1-.443-.466,1.036,1.036,0,0,1,.443-.112c.319.019.552.335.858.433.436.138.87-.185,1.311-.295a8.5,8.5,0,0,0,.876-.155,2.149,2.149,0,0,0,.648-.413,3.383,3.383,0,0,0,.693-.7,4.6,4.6,0,0,0,.406-.852,12.426,12.426,0,0,1,.821-1.652,1.164,1.164,0,0,1,.167-.23,2.327,2.327,0,0,1,.226-.172,1.831,1.831,0,0,0,.521-1,1.806,1.806,0,0,1,.117-.334.563.563,0,0,1,.471.253A1.027,1.027,0,0,1,606.8,528.627Z" transform="translate(-523.099 -464.113)" fill="#464353"/><path d="M438.216,201.126a3.254,3.254,0,0,1,.886,1.087,23.235,23.235,0,0,1,1.329,4.206c.388-.411,1.92-.478,2.313-.89.164-.172,1.049-1.032,1.181-1.233s1.119-.621,1.227-.832c.4-.759-2.859-3.636-2.441-4.386a.2.2,0,0,0,.034-.118.194.194,0,0,0-.055-.092,4.89,4.89,0,0,0-.944-.678,1.557,1.557,0,0,1-.719-.9,3.1,3.1,0,0,0-.834.593q-.9.809-1.765,1.65c-.226.22-.663.514-.768.829C437.536,200.7,438,200.941,438.216,201.126Z" transform="translate(-385.483 -185.016)" fill="#a1616a"/><path d="M453.579,214.13a9.73,9.73,0,0,0-1.4,1.2,2.949,2.949,0,0,0-.886,1.5c-.041.231-.035.466-.069.7-.148,1.017-.984,1.762-1.353,2.714a4.895,4.895,0,0,0-.235.908,11.264,11.264,0,0,0-.17,1.782c-.009.579.532.978.73,1.518a9.675,9.675,0,0,1,.351,1.65,20.3,20.3,0,0,0,.886,3.058c.728,2.114,3.088,7.96,3.816,10.076,2.231-.588,8.171-1.941,10.147-3.181.659-.413-4.571-5.072-3.866-5.393a.264.264,0,0,0,.191-.143.289.289,0,0,0,.006-.247c-.7-3.238-2.908-5.9-3.908-9.053a28.071,28.071,0,0,0-1.443-3.069c-.428-.942-.657-1.984-1.17-2.88a1.8,1.8,0,0,0-.374-.489,2.188,2.188,0,0,0-.412-.262C454.133,214.369,453.861,214.281,453.579,214.13Z" transform="translate(-395.565 -199.242)" fill="#514e7f"/><ellipse cx="3.493" cy="3.672" rx="3.493" ry="3.672" transform="translate(49.358 8.399)" fill="#a1616a"/><path d="M466.4,205.315a1.127,1.127,0,0,1,1.313-.2.671.671,0,0,1,.39.663l1.732.028a3.314,3.314,0,0,1,.821.079,1.187,1.187,0,0,1,.685.452c.021.029.044.065.08.07a.123.123,0,0,0,.08-.028,1.44,1.44,0,0,1,.862-.155A4.552,4.552,0,0,1,474.9,207.4a.855.855,0,0,1,.3.387c.061.206-.012.466.148.613a22.852,22.852,0,0,0,.93,4.968,2.234,2.234,0,0,0,.524.792,3.209,3.209,0,0,1,.56.879c.316.863-.12,1.878.188,2.745a4.744,4.744,0,0,0,.591.986,2.62,2.62,0,0,1,.505,1.273c.013.208-.012.418,0,.621a3.934,3.934,0,0,0,.148.824q.189.751.4,1.5a3.441,3.441,0,0,0,1.205,2.108,9.374,9.374,0,0,1-5-.02,2.543,2.543,0,0,1-.623-.328,3.807,3.807,0,0,1-1.094-1.854,9.112,9.112,0,0,1-.61-2.392,2.878,2.878,0,0,0-.1-.776,2.151,2.151,0,0,0-.981-.972,4.748,4.748,0,0,1-1.181-.966,1.991,1.991,0,0,1-.478-1.45c.03-.256.126-.5.134-.761a.6.6,0,0,0-.335-.621c-1.209-.385-1.787-1.891-2.056-3.189a10.749,10.749,0,0,1-.155-2.034l-.016-1.324a1.788,1.788,0,0,1-.543-1.256,1.567,1.567,0,0,0-.007-.416,1.153,1.153,0,0,0-.278-.442A3.953,3.953,0,0,1,466.4,205.315Z" transform="translate(-409.996 -191.52)" fill="#464353"/><path d="M439.806,228.192a10.684,10.684,0,0,1-.038,1.233c-.034.155-.093.311-.136.455a2.8,2.8,0,0,0,.161,1.728,9.756,9.756,0,0,0,.84,1.529,2.528,2.528,0,0,1,.269.529,2.866,2.866,0,0,1,.1.6,19.637,19.637,0,0,0,.411,2.44A63.541,63.541,0,0,0,443.9,243.9a.557.557,0,0,0,.337.241.587.587,0,0,0,.286-.062l.886-.357a.448.448,0,0,0,.332-.484c.064-.758-1.819-6.746-2.059-7.461a59.061,59.061,0,0,1-2.158-6.482,4.88,4.88,0,0,0-.634-2.073c-.179-.2-.118-.118-.332-.011a2.389,2.389,0,0,0-.313.172,1.09,1.09,0,0,0-.437.806Z" transform="translate(-387.122 -210.198)" fill="#464353"/><path d="M556.62,320.79" transform="translate(-486.892 -289.343)" fill="#464353"/><path d="M458.211,225.964c.238,1.321.483,2.639.727,3.96l3.467-.955a2.662,2.662,0,0,0-.3-1.087c-.316-.834-.323-1.762-.579-2.619-.193-.652-.53-1.251-.712-1.908-.1-.382-.158-.776-.261-1.163a8.714,8.714,0,0,0-.408-1.11,7.071,7.071,0,0,0-.756-1.473,2.2,2.2,0,0,0-1.168.8,1.786,1.786,0,0,0-.216.776c-.061.818.222,1.641.128,2.454A7.583,7.583,0,0,0,458.211,225.964Z" transform="translate(-402.838 -203.871)" fill="#2dbb54"/><path d="M477.09,330.859a4.556,4.556,0,0,1-.318,2.361,19.122,19.122,0,0,0-.706,3.555,3.214,3.214,0,0,1-.174.9c-.109.259-.3.478-.422.725a3.811,3.811,0,0,0-.264,2.183c.05.489.126.977.219,1.458a3.87,3.87,0,0,1,.09,1.778c.275-.064.461.311.443.6a1.69,1.69,0,0,0,.027.874c.34.13.343.621.332,1a8.832,8.832,0,0,0,.236,1.956q.771,3.9,1.636,7.772c1.248.407,2.705.831,3.9.267a.8.8,0,0,0,.493-.522.953.953,0,0,0-.047-.4l-.564-2.158a4.151,4.151,0,0,1-.2-1.6c.055-.4.22-.829.034-1.181-.064-.121-.164-.216-.238-.331a2.745,2.745,0,0,1-.117-1.615,1.342,1.342,0,0,0-.024-.37,1.9,1.9,0,0,0-.168-.405,6.462,6.462,0,0,1-.65-3.083.8.8,0,0,0-.052-.4,1.317,1.317,0,0,1-.1-.165.471.471,0,0,1,.031-.3,2.649,2.649,0,0,1-.455-.466.674.674,0,0,0,.3-.5.689.689,0,0,0-.187-.551.34.34,0,0,0,.255-.249.361.361,0,0,0-.1-.351c-.072-.053-.168-.076-.22-.155-.08-.115-.015-.275.05-.4l.344-.654c.257-.486.315-1.087.591-1.552a11.949,11.949,0,0,0,.91-2.183l.994-2.883.669.61a2.193,2.193,0,0,1,.549.658,2.962,2.962,0,0,1,.179.789c.245,1.565,1.181,2.922,1.528,4.463a3.045,3.045,0,0,0,.316,1,2.182,2.182,0,0,1,.18.286,1.585,1.585,0,0,1,.075.473,2.233,2.233,0,0,0,.886,1.584c.329.238.738.4.917.776a1.48,1.48,0,0,0,.148.331c.159.2.5.225.572.478.038.141-.032.31.043.435a.394.394,0,0,0,.164.129l.961.5c1.075.565,1.624,1.863,2.418,2.808a6.039,6.039,0,0,1,.724,1.006c.343.644.5,1.453,1.08,1.863a1.643,1.643,0,0,1,.419.328c.182.252.115.6.131.921s.247.694.533.6a2.318,2.318,0,0,0,0,1.172,5.468,5.468,0,0,0,3.405-1.45,1.427,1.427,0,0,0,.554-.978.366.366,0,0,0-.041-.194.531.531,0,0,0-.217-.172c-.9-.512-1.17-1.7-1.624-2.664a23.23,23.23,0,0,0-1.477-2.374c-1.069-1.7-1.8-3.757-3.416-4.879a2.365,2.365,0,0,1-.948-.874c-.1-.228-.111-.489-.189-.725s-.266-.466-.505-.466a3.412,3.412,0,0,0,.115-1.127,1.493,1.493,0,0,0-.053-.486,2.41,2.41,0,0,0-.238-.481,4.8,4.8,0,0,1-.608-2.484,4.277,4.277,0,0,0-.041-1.34c-.065-.216-.179-.413-.257-.621a4.062,4.062,0,0,1-.185-1.167l-.089-1.492a7.7,7.7,0,0,0-.183-1.475c-.3-1.158-.591-6.01-1.6-6.556s-2.75,3.187-3.888,3.26a4.846,4.846,0,0,0-1.477.3,7.176,7.176,0,0,0-2.011,1.4l-2.094,1.849A7.758,7.758,0,0,1,477.09,330.859Z" transform="translate(-417.465 -291.191)" fill="#464353"/><path d="M415.023,164.039A2.588,2.588,0,0,1,417.055,163a4.55,4.55,0,0,1,2.246.593,2.7,2.7,0,0,0,.656.283c.369.079.78-.026,1.113.155a1.44,1.44,0,0,1,.49,1.4,2.688,2.688,0,0,0,.133,1.552,3.61,3.61,0,0,1,.255.405,1.405,1.405,0,0,1-.021.863,5.564,5.564,0,0,1-.424-.57.484.484,0,0,0-.611-.166c-.191.135-.188.38-.2.6s-.063.484-.261.556a.414.414,0,0,1-.443-.182c-.338-.435-.2-1.129-.538-1.566-.19-.248-.508-.37-.684-.63-.139-.2-.174-.466-.3-.686s-.4-.382-.591-.23a.837.837,0,0,0-.158.222.883.883,0,0,1-1.078.342,1.759,1.759,0,0,0-.467-.213.572.572,0,0,0-.533.311,1.263,1.263,0,0,0-.148.649,1.565,1.565,0,0,1-.115.89.9.9,0,0,1-.236.236.707.707,0,0,1-.818.088.667.667,0,0,1-.183-.6,5.067,5.067,0,0,1,.174-.637c.13-.481-.04-1.023.1-1.476A4.79,4.79,0,0,1,415.023,164.039Z" transform="translate(-365.449 -156.045)" fill="#464353"/><path d="M432.756,204.271a.592.592,0,0,0,.032.337.521.521,0,0,0,.174.175,3.463,3.463,0,0,0,1.645.56.482.482,0,0,1,.227.062.435.435,0,0,1,.1.481,1.308,1.308,0,0,0-.1.512c.043.324.409.466.718.514a1.6,1.6,0,0,0,1.249-.256,2.039,2.039,0,0,0,.515-.812c.848-2.048,1.144-4.311,2-6.353a1.4,1.4,0,0,0,.128-.425.429.429,0,0,0-.159-.391c-.159-.1-.408-.045-.515-.208-.053-.082-.047-.194-.095-.281-.1-.185-.359-.155-.536-.262-.139-.078-.235-.238-.39-.269a.48.48,0,0,0-.4.183,5.523,5.523,0,0,0-1.049,1.855,22.131,22.131,0,0,1-1.5,2.925,1.738,1.738,0,0,0-.47-.967c-.264-.056-.6.432-.746.613a4.01,4.01,0,0,0-.821,2.006Z" transform="translate(-381.311 -185.324)" fill="#2dbb54"/><path d="M459.647,200.32a.7.7,0,0,0-.548.289,1.7,1.7,0,0,0-.229.776,6.963,6.963,0,0,1-.87,2.456" transform="translate(-402.836 -187.576)" opacity="0.1"/><path d="M464.943,204.31a.838.838,0,0,0-.716.452,2.646,2.646,0,0,0-.18.767,4.309,4.309,0,0,1-.716,1.613" transform="translate(-407.379 -190.946)" opacity="0.1"/><path d="M235.079,360.2v-1.928a5.227,5.227,0,0,0-5.092-5.351H157.552a5.227,5.227,0,0,0-5.092,5.351v3.555Z" transform="translate(-142.418 -316.485)" fill="#33323d"/><path d="M323.362,273.68s-.207,13.485,2.068,17.922,3.249,23.739,3.249,23.739,23.841,2.593,40.455-3.1,51.965-8.028,51.965-8.028L415.141,262s-29.431-1.984-46.173,6.41S323.362,273.68,323.362,273.68Z" transform="translate(-288.077 -239.505)" fill="#8dd070"/><path d="M323.362,273.68s-.207,13.485,2.068,17.922,3.249,23.739,3.249,23.739,23.841,2.593,40.455-3.1,51.965-8.028,51.965-8.028L415.141,262s-29.431-1.984-46.173,6.41S323.362,273.68,323.362,273.68Z" transform="translate(-288.077 -239.505)" opacity="0.1"/><path d="M358.273,294.824s-.746,11.127,1.125,14.682,1.958,19.426,1.958,19.426,21.456,1.046,36.719-4.415,47.335-9,47.335-9l-3.645-34.519s-26.538-.287-42.026,7.4S358.273,294.824,358.273,294.824Z" transform="translate(-317.712 -255.723)" fill="#8dd070"/><path d="M18.63,1.971c3.079-.019,5.541,5.584,5.5,12.515s-2.571,12.566-5.65,12.585-5.541-5.584-5.5-12.515S15.551,1.99,18.63,1.971Z" transform="translate(60.108 37.894) rotate(-7.1)" opacity="0.1"/><path d="M351.142,130.66s-28.592,7.607-42.075,21S267.2,171.388,267.2,171.388s3.739,12.9,7.2,16.39,10.018,21.548,10.018,21.548,23.447-5.226,37.594-16.012,47.12-24.41,47.12-24.41Z" transform="translate(-240.213 -128.73)" opacity="0.2"/><path d="M264.29,158.956s3.738,12.9,7.193,16.391S281.5,196.894,281.5,196.894s23.45-5.224,37.6-16.011,47.118-24.405,47.118-24.405L348.23,118.23s-28.59,7.607-42.073,21S264.29,158.956,264.29,158.956Z" transform="translate(-237.733 -118.23)" fill="#8dd070"/><path d="M264.29,158.956s3.738,12.9,7.193,16.391S281.5,196.894,281.5,196.894s23.45-5.224,37.6-16.011,47.118-24.405,47.118-24.405L348.23,118.23s-28.59,7.607-42.073,21S264.29,158.956,264.29,158.956Z" transform="translate(-237.733 -118.23)" opacity="0.1"/><path d="M308,181.6s2.539,10.832,5.358,13.611,7.532,17.854,7.532,17.854,20.725-5.927,33.657-16.05,42.426-23.826,42.426-23.826L383.43,141.5s-25.34,8.286-37.838,20.6S308,181.6,308,181.6Z" transform="translate(-274.988 -137.887)" fill="#8dd070"/><path d="M47.162,18.15c3.1-.06,5.516,5.465,5.387,12.341s-2.751,12.5-5.856,12.56-5.516-5.465-5.387-12.341S44.058,18.211,47.162,18.15Z" transform="translate(18.578 33.341) rotate(-24.97)" opacity="0.1"/><path d="M237.059,382.62V436.18a4.522,4.522,0,0,1-4.407,4.631H156.894a4.522,4.522,0,0,1-4.4-4.631V377.22a7.447,7.447,0,0,0,4.4.776h75.759A4.523,4.523,0,0,1,237.059,382.62Z" transform="translate(-142.443 -337.012)" opacity="0.1"/><path d="M237.059,387v53.561a4.524,4.524,0,0,1-4.407,4.631H156.894a4.522,4.522,0,0,1-4.4-4.631V381.6a7.471,7.471,0,0,0,4.4.776h75.759A4.523,4.523,0,0,1,237.059,387Z" transform="translate(-142.443 -340.712)" fill="#504f60"/><path d="M585.469,543.936v17.129h-15.8a8.575,8.575,0,0,1,0-17.129Z" transform="translate(-491.069 -477.845)" opacity="0.1"/><path d="M586.929,541v17.132h-15.8a8.575,8.575,0,0,1,0-17.129Z" transform="translate(-492.313 -475.366)" fill="#33323d"/><ellipse cx="3.177" cy="3.339" rx="3.177" ry="3.339" transform="translate(76.395 71.316)" opacity="0.1"/><ellipse cx="3.177" cy="3.339" rx="3.177" ry="3.339" transform="translate(76.611 70.863)" fill="#2dbb54"/><path d="M851.177,527.008c.126,1.43-.9,2.818-.6,4.218.065.3.188.582.232.885a3.509,3.509,0,0,1-.8,2.315l-3.869,5.968a3.678,3.678,0,0,1-.552.717c-.738.692-1.849.621-2.821.827a4.707,4.707,0,0,0-1.89.879.132.132,0,0,0-.018.174,1.6,1.6,0,0,0,1.406.694c.1.141,0,.348-.148.449-.208.155-.493.193-.535.562a.637.637,0,0,0,.071.373,1.1,1.1,0,0,0,.676.5,3.905,3.905,0,0,0,3.789-1.355c1-1.029,1.722-2.329,2.706-3.377.545-.579,1.164-1.076,1.725-1.638a20.668,20.668,0,0,0,2.83-3.849,4.389,4.389,0,0,0,.613-1.31c.106-.477.056-.958.176-1.419a5.282,5.282,0,0,1,.927-1.594,5.458,5.458,0,0,0,1.054-3.433,3.287,3.287,0,0,0-1.911-2.849,1.621,1.621,0,0,0-1.071-.068,2.569,2.569,0,0,0-1.09.911l-.738.893a2.1,2.1,0,0,0-.428.683.743.743,0,0,0,.148.759" transform="translate(-729.133 -461.521)" fill="#fbbebe"/><path d="M851.177,527.008c.126,1.43-.9,2.818-.6,4.218.065.3.188.582.232.885a3.509,3.509,0,0,1-.8,2.315l-3.869,5.968a3.678,3.678,0,0,1-.552.717c-.738.692-1.849.621-2.821.827a4.707,4.707,0,0,0-1.89.879.132.132,0,0,0-.018.174,1.6,1.6,0,0,0,1.406.694c.1.141,0,.348-.148.449-.208.155-.493.193-.535.562a.637.637,0,0,0,.071.373,1.1,1.1,0,0,0,.676.5,3.905,3.905,0,0,0,3.789-1.355c1-1.029,1.722-2.329,2.706-3.377.545-.579,1.164-1.076,1.725-1.638a20.668,20.668,0,0,0,2.83-3.849,4.389,4.389,0,0,0,.613-1.31c.106-.477.056-.958.176-1.419a5.282,5.282,0,0,1,.927-1.594,5.458,5.458,0,0,0,1.054-3.433,3.287,3.287,0,0,0-1.911-2.849,1.621,1.621,0,0,0-1.071-.068,2.569,2.569,0,0,0-1.09.911l-.738.893a2.1,2.1,0,0,0-.428.683.743.743,0,0,0,.148.759" transform="translate(-729.133 -461.521)" opacity="0.05"/><path d="M911.213,768.152a4.287,4.287,0,0,1-2.88.449c-.158-.02-.346-.033-.443.1-.148.186.027.466.207.61a4.15,4.15,0,0,0,1.977.855,12.4,12.4,0,0,0,1.935.135,31.127,31.127,0,0,0,5.288-.2.722.722,0,0,0,.3-.09.571.571,0,0,0,.219-.349,1.425,1.425,0,0,0-.459-1.323,3.8,3.8,0,0,0-1.233-.7l-1.536-.629c-.36-.147-.938-.539-1.329-.508C912.518,766.556,911.823,767.777,911.213,768.152Z" transform="translate(-786.24 -665.856)" fill="#3f3d56"/><path d="M911.213,768.152a4.287,4.287,0,0,1-2.88.449c-.158-.02-.346-.033-.443.1-.148.186.027.466.207.61a4.15,4.15,0,0,0,1.977.855,12.4,12.4,0,0,0,1.935.135,31.127,31.127,0,0,0,5.288-.2.722.722,0,0,0,.3-.09.571.571,0,0,0,.219-.349,1.425,1.425,0,0,0-.459-1.323,3.8,3.8,0,0,0-1.233-.7l-1.536-.629c-.36-.147-.938-.539-1.329-.508C912.518,766.556,911.823,767.777,911.213,768.152Z" transform="translate(-786.24 -665.856)" opacity="0.05"/><path d="M931.266,589.235a4.418,4.418,0,0,0-1.143,3.034,6.967,6.967,0,0,0,.637,1.674,12.283,12.283,0,0,1,.644,2.354c.239,1.171.48,2.344.626,3.533.167,1.343-.617,5.229-.69,6.581a1.44,1.44,0,0,1-.27.913c-.084.093-.2.168-.235.289a.516.516,0,0,0,.052.342,3.648,3.648,0,0,0,1.92,1.854,14.6,14.6,0,0,0,3.7,1.023.534.534,0,0,0,.617-.373c.642-1.292.025-5.884.034-7.342.009-1.216.282-2.423.232-3.637-.041-.975-.3-1.928-.38-2.9a17.964,17.964,0,0,1,.409-4.768c.213-1.208.427-2.416.7-3.608a7.154,7.154,0,0,1,.738-2.094c.3-.5.71-.921,1.054-1.4a6.545,6.545,0,0,0,1.181-4.617,11.064,11.064,0,0,0-2.409.674,7.471,7.471,0,0,0-2.147,1.452,18.832,18.832,0,0,0-1.353,1.759q-.944,1.209-1.864,2.436Q932.274,587.816,931.266,589.235Z" transform="translate(-805.217 -508.372)" fill="#464353"/><path d="M931.266,588.927a4.421,4.421,0,0,0-1.143,3.034,6.953,6.953,0,0,0,.637,1.675,12.267,12.267,0,0,1,.644,2.352c.239,1.172.48,2.346.626,3.533.167,1.344-.617,5.229-.69,6.581a1.445,1.445,0,0,1-.27.914c-.084.092-.2.166-.235.287a.514.514,0,0,0,.052.342,3.694,3.694,0,0,0,1.92,1.863,13.648,13.648,0,0,0,3.7.728.706.706,0,0,0,.349-.048.693.693,0,0,0,.269-.323c.642-1.292.025-5.589.034-7.048.009-1.217.282-2.423.232-3.639-.041-.975-.3-1.928-.38-2.9a17.97,17.97,0,0,1,.409-4.769c.213-1.206.427-2.414.7-3.608a7.153,7.153,0,0,1,.738-2.094c.3-.5.71-.921,1.054-1.4a6.542,6.542,0,0,0,1.181-4.617,11.064,11.064,0,0,0-2.409.674,7.509,7.509,0,0,0-2.147,1.453,18.613,18.613,0,0,0-1.353,1.757q-.944,1.209-1.864,2.437Q932.274,587.507,931.266,588.927Z" transform="translate(-805.217 -508.119)" opacity="0.05"/><ellipse cx="3.584" cy="3.768" rx="3.584" ry="3.768" transform="translate(115.35 53.632)" fill="#fbbebe"/><path d="M891.959,483.028a4.651,4.651,0,0,0,2.976,2.183l-.27,1.032c-.467,1.773-.991,3.648-2.293,4.878a2.36,2.36,0,0,0-.363-1.764,6.514,6.514,0,0,0-1.217-1.337l-2.063-1.879a.646.646,0,0,1-.148-.183.577.577,0,0,1,0-.413,4.972,4.972,0,0,1,1.624-1.978,5.843,5.843,0,0,0,.817-1C891.433,481.95,891.688,482.571,891.959,483.028Z" transform="translate(-769.796 -425.786)" fill="#fbbebe"/><path d="M852.693,447.109l-.081-.708c.566.155,1.1-.351,1.465-.874s.7-1.14,1.248-1.358c.669-.264,1.378.155,2.017.509a6.164,6.164,0,0,0,2.314.792,1.454,1.454,0,0,1,.383.065c.416.155.614.7.675,1.2a4.922,4.922,0,0,0,.25,1.472c.148.337.422.587.591.919.443.891.015,2.11.477,2.984l-1.149-1.107c-.1-.1-.253-.206-.369-.121-.092.068-.1.216-.136.334a.591.591,0,0,1-.818.311,2.39,2.39,0,0,1-.738-.7A4.512,4.512,0,0,0,857,449.372a2.237,2.237,0,0,0-1.92.134c-.536.318-.929,1.06-1.586,1.087-.9.036-1.276-1.728-1.692-2.425a.882.882,0,0,0,.236-1.068C852.1,447.073,852.68,447,852.693,447.109Z" transform="translate(-738.481 -393.497)" fill="#464353"/><path d="M550.951,316.812a7.193,7.193,0,0,0-.8.879,1.818,1.818,0,0,0-.366,1.129.6.6,0,0,0,.1.331.258.258,0,0,0,.3.095.4.4,0,0,0,.148-.137,7.373,7.373,0,0,1,.5-.565c.063-.067.148-.137.233-.112a.249.249,0,0,1,.1.07.719.719,0,0,1,.208.342.829.829,0,0,1-.229.661,1.7,1.7,0,0,0-.385.6.212.212,0,0,0,.115.295,1.576,1.576,0,0,0,1.394.1c.3-.126.558-.342.862-.453a1.937,1.937,0,0,0,.381-.155.835.835,0,0,0,.338-.533,2.307,2.307,0,0,0,.022-.654,7.844,7.844,0,0,0-.508-2.458.312.312,0,0,0-.086-.13.263.263,0,0,0-.148-.042,3.347,3.347,0,0,0-1.363-.1.98.98,0,0,0-.322.3C551.378,316.353,550.951,316.708,550.951,316.812Z" transform="translate(-481.07 -285.228)" fill="#a1616a"/><path d="M526.247,240.463c0-.379-.443-1.293.261-1.354,0-.405-.545-.657-.443-1.087.032-.143.148-.259.161-.405.044-.415-.667-.64-.549-1.037.044-.155.2-.245.235-.4.08-.359-.53-.519-.542-.886,0-.124.066-.241.061-.365,0-.155-.128-.273-.2-.408-.185-.346-.095-.882-.431-1.06.223.02.3-.328.2-.54s-.279-.4-.281-.633a1.006,1.006,0,0,0,0-.258c-.062-.227-.415-.245-.474-.466a2.073,2.073,0,0,1-.007-.255.466.466,0,0,0-.356-.337,1.406,1.406,0,0,1-.476-.179c-.1-.082-.223-.219-.334-.155-.041.026-.062.076-.093.113-.133.163-.387.092-.554-.028a2.424,2.424,0,0,1-.843-1.6c-.1-.616-.1-1.253-.233-1.863a4.136,4.136,0,0,0-.159-.559,3.011,3.011,0,0,1-.248-.556c-.027-.357.676-.113.944-.078a4.021,4.021,0,0,1,.766.155,8,8,0,0,1,.784.362c1.066.5,2.354.556,3.211,1.388.282.273.52.632.886.756a3.852,3.852,0,0,1,.5.135c.406.2.47.767.691,1.177a2.341,2.341,0,0,1,.182.342,1.378,1.378,0,0,1,.059.435l.031,1.076a41.7,41.7,0,0,1-.083,5.4,4.651,4.651,0,0,0,.019,1.768c.044.155.106.3.148.458a2.93,2.93,0,0,1,.056.559l.024.7a.226.226,0,0,1-.032.155.2.2,0,0,1-.179.045c-.923-.087-1.856-.633-2.728-.3" transform="translate(-456.486 -209.23)" fill="#464353"/><ellipse cx="10.922" cy="1.66" rx="10.922" ry="1.66" transform="translate(100.96 81.474)" fill="#504f60"/><path d="M709.637,250.065c-.192-.865-.312-1.624-.312-1.624a3.493,3.493,0,0,0-.357-1.647v-.236h0v-1.739a6.068,6.068,0,0,1,.418-.911,7.2,7.2,0,0,0,0-2.549,11.775,11.775,0,0,1-.836-4.616c.267-1.792-2.265-7.955-2.265-7.955a8.236,8.236,0,0,1,.238-1.761,1.407,1.407,0,0,0,.033-.369v-.031a14.21,14.21,0,0,0-.927-3.4l.12-4.22a13.021,13.021,0,0,0-.357-5.83c-.323-1.166-.53-2.1-.662-2.819-.015-.081-.03-.155-.041-.234,1.9-.31,3.358-.559,3.358-.559s-1.1-4.858-1.85-5.708a11.57,11.57,0,0,1-1.342-3.523s-.388-3.429.239-4.432a6.94,6.94,0,0,0,.716-2.732s1.431-1.087,1.611-1.579a8.4,8.4,0,0,0,.477-2.155c0-.576-.179-1.087-.12-1.4s-.418-1.458-.179-2a1.537,1.537,0,0,0,.095-.526.073.073,0,0,0,0-.016h0a7.743,7.743,0,0,0-.126-1.425,3.791,3.791,0,0,0-1.418-.8l-.031-.13-.081-.342a1.559,1.559,0,0,0-.14-.087v-.124l-.013-.494.224-1.108c.443-1.928-2.007-2.215-2.007-2.215a1.315,1.315,0,0,0-.694-.64c-.492-.182-.081,2.9.148,3.1a12.239,12.239,0,0,1,.966,1.59h0l.041.078a1.067,1.067,0,0,0-.112.124l.093.669.015.1a2.809,2.809,0,0,0-.391.7,1.553,1.553,0,0,1,.359,1.087,3.646,3.646,0,0,0,.148,1.335c-.027-.033-.341-.39-.656-.3s-1.193.365-1.193.365-.656.121-.591.273-.443.82-.443.82l-1.763-1.757c-.018-.053-.037-.106-.052-.155a4.47,4.47,0,0,1-.148-.776,3.9,3.9,0,0,0,.564-.188,1.212,1.212,0,0,0,.487-.329,2.05,2.05,0,0,0,.285-.8,12.062,12.062,0,0,1,.654-1.534,5.222,5.222,0,0,0,.332-2.76,1.862,1.862,0,0,0-.27-.807c-.288-.416-.811-.585-1.19-.918s-.625-.84-1.068-1.087a2.022,2.022,0,0,0-1.338-.121,6.991,6.991,0,0,0-2.5.956,1.26,1.26,0,0,1-.836.289,1.1,1.1,0,0,1-.6-.466.159.159,0,0,1,.007-.025.157.157,0,0,1-.019-.025,3.417,3.417,0,0,0-.275,1.388,1.8,1.8,0,0,0,.009.222v.141h0a.37.37,0,0,1-.013.1.707.707,0,0,1-.165.25,1.668,1.668,0,0,0-.148.206.266.266,0,0,1,.024-.076,1.142,1.142,0,0,0-.183.585.618.618,0,0,0,.133.419,1.939,1.939,0,0,0,.288.242,3.712,3.712,0,0,0-.053.621,3.628,3.628,0,0,0,1.663,3.06c.021.051.04.1.059.155a4.623,4.623,0,0,1,.32,2.018.992.992,0,0,1-.021.146c-.007.048-.044.051-.063.078h0s-2.914.031-3.6-.621-1.731,1.594-1.731,1.594-1.044.213-1.254,0-1.431-.029-1.431-.029a2.558,2.558,0,0,0-1.821-.7,5.276,5.276,0,0,0-1.329-.776h0l-.032-.012h0a1.421,1.421,0,0,0-.657-.087,13.582,13.582,0,0,1-1.85-1.913c-.418-.671-2.407-3.147-2.416-3.158v-.12l-.022-.36a1.168,1.168,0,0,1-.179.016c-.01-.036-.025-.078-.04-.126a7.135,7.135,0,0,0-.422-1.02s0-.455.125-.57a8.247,8.247,0,0,0-.052-1.784s-1.291-3.172-2.447-.8c0,0-2.186,1.532-.352,3.318,0,0,.738.373.836.668.068.191.316.727.483,1.087l.075.155-.021.019.027.3.012.115c-.346.206-.58.411-.523.565a3.532,3.532,0,0,1,.208.82s2.537,3.341,2.865,4.768c0,0,6.8,4.251,9.041,4.553l-.4,2.119q-.087.863-.089,1.731c.03.455-.269,2.52-.269,2.52a17.6,17.6,0,0,1-.716,3.462,6.113,6.113,0,0,0-.269,2.246,16.053,16.053,0,0,1-.443,2.58,6.924,6.924,0,0,0-.09,2.582s-1.133,2.732,1.582.88c0,0,1.329-.087,2.868-.143v.155c0,.208,0,.433-.01.669-.021,1.565-.03,3.726.038,5.353.12,2.885.955,8.593.955,8.593v2.874a4.1,4.1,0,0,0-.08.82,5.544,5.544,0,0,0,.738,2.871l.21,1.913a7.763,7.763,0,0,1,.5,2.018,1.106,1.106,0,0,1-.021.182,1.282,1.282,0,0,0-.024.293,17.3,17.3,0,0,0,.47,2.95s.03,2.094.328,2.217c.255.1-.341,1.206-.518,1.523a.449.449,0,0,1-.01-.059l-.037.062a1.555,1.555,0,0,0-.093.531.775.775,0,0,0,.331.736c.567.365.871.668.39.789a4.8,4.8,0,0,0-.526.116.247.247,0,0,0-.025-.07.335.335,0,0,0-.2.366,1.615,1.615,0,0,0,.176.7,7.8,7.8,0,0,0,.808,1.552l.229-.026a1.2,1.2,0,0,1-.133.259.967.967,0,0,1-.337.31,1.009,1.009,0,0,1-.409.147,1.132,1.132,0,0,0-.845.432.956.956,0,0,0,.1,1.441l2.134.776s3.671.5,3.476-.365-.313-1.624-.313-1.624a3.574,3.574,0,0,0-.3-1.535,2.022,2.022,0,0,0-.13-.227l.13-.014a7.389,7.389,0,0,1,.626-2.277c.083-.084.1-.155.083-.2.037-.1-.058-.165-.177-.2l-.027.076a1.66,1.66,0,0,0-.356-.042s-.12-1,.269-1.366a.4.4,0,0,0,.075-.3,1.681,1.681,0,0,0-.041-.408.2.2,0,0,1-.013.025,15.171,15.171,0,0,0-.857-2.355,3.013,3.013,0,0,1,.21-1.275c.239-.365-.031-4.949-.031-4.949a15.741,15.741,0,0,0-.179-3.248,3.8,3.8,0,0,1,.328-2.248v-.081l-.034-.349a.093.093,0,0,0,0,.022c-.061-.587-.174-1.65-.258-2.141-.12-.7.031-4.036.031-4.036l.536-1.428.956,2.461,1.015,3.279a2.878,2.878,0,0,1,.514,1.4v.1a1.886,1.886,0,0,0-.012.219,2.024,2.024,0,0,0,.309,1.169,5.226,5.226,0,0,0,.687,1.942,1.8,1.8,0,0,1,.418,1.154,20.953,20.953,0,0,0,.738,2.639,4.11,4.11,0,0,1,.21,1.526h0v.081s.071.8.068,1.478v.241a.072.072,0,0,0,0-.017,2.455,2.455,0,0,1-.062.546l-.009.031a.414.414,0,0,1,.01-.113,5.986,5.986,0,0,0-.148,1.4,3.76,3.76,0,0,0,.569,2.329c.806.972,1.313.851,1.313.851s-.387,1.214-.865,1.458a.223.223,0,0,0-.05.034.546.546,0,0,0-.012-.071.611.611,0,0,0-.148.453,3.366,3.366,0,0,0,.591,1.8.955.955,0,0,0,.4.248.631.631,0,0,1-.075.048,1.564,1.564,0,0,1-.164.082.827.827,0,0,1-.244.067,1.118,1.118,0,0,0-.845.432.954.954,0,0,0,.1,1.439l2.134.776S709.829,250.93,709.637,250.065Z" transform="translate(-588.358 -166.851)" fill="url(#a)"/><path d="M796.707,640.317l-2.068-.776a.974.974,0,0,1-.1-1.441,1.087,1.087,0,0,1,.818-.432.95.95,0,0,0,.394-.148.963.963,0,0,0,.328-.31,1.664,1.664,0,0,0,.235-.84s2.268-.7,2.889,0a1.772,1.772,0,0,1,.275.424,3.7,3.7,0,0,1,.3,1.535s.115.758.3,1.624S796.707,640.317,796.707,640.317Z" transform="translate(-689.444 -555.668)" fill="#2d293d"/><path d="M865.147,633.4l-2.068-.776a.972.972,0,0,1-.1-1.439,1.074,1.074,0,0,1,.817-.432.737.737,0,0,0,.236-.067,1.537,1.537,0,0,0,.159-.082,1.4,1.4,0,0,0,.563-1.154s2.267-.7,2.889,0a1.717,1.717,0,0,1,.217.31,3.6,3.6,0,0,1,.346,1.649s.115.759.3,1.624S865.147,633.4,865.147,633.4Z" transform="translate(-747.776 -549.822)" fill="#2d293d"/><path d="M809.682,636.358a1.773,1.773,0,0,1,.275.424h0l-3.4.415a1.665,1.665,0,0,0,.235-.84S809.062,635.66,809.682,636.358Z" transform="translate(-699.922 -555.657)" opacity="0.1"/><path d="M875.528,629.781v.669c-.529.914-3.085.714-3.828.256a1.532,1.532,0,0,0,.159-.082,1.4,1.4,0,0,0,.563-1.154s2.267-.7,2.889,0A1.717,1.717,0,0,1,875.528,629.781Z" transform="translate(-755.442 -549.839)" opacity="0.1"/><path d="M800.715,421.444a6.229,6.229,0,0,0-.4.911v2.4c-.579,1-3.581.668-3.987.121s-.83-1.969-.374-2.215.837-1.458.837-1.458-.492.121-1.271-.851-.548-3.127-.4-3.642a11.309,11.309,0,0,0,0-2.246,4.734,4.734,0,0,0-.2-1.61,20.844,20.844,0,0,1-.722-2.639,1.848,1.848,0,0,0-.4-1.154,5.373,5.373,0,0,1-.665-1.944,2.073,2.073,0,0,1-.288-1.306,2.736,2.736,0,0,0-.492-1.579l-.982-3.28-.924-2.459-.52,1.427s-.148,3.339-.028,4.036.3,2.551.3,2.551a3.909,3.909,0,0,0-.318,2.246,16.106,16.106,0,0,1,.165,3.251,34.821,34.821,0,0,1,.028,4.948,3.1,3.1,0,0,0-.2,1.276s1.181,2.67.809,3.035-.26,1.366-.26,1.366.808,0,.462.365a7.611,7.611,0,0,0-.607,2.277l-3.493.43a7.758,7.758,0,0,1-.781-1.552c-.462-1.129.086-1,.551-1.124s.171-.424-.378-.789-.23-1.185-.23-1.185.837-1.487.548-1.608-.318-2.217-.318-2.217a14.129,14.129,0,0,1-.433-3.158,6.3,6.3,0,0,0-.462-2.276l-.2-1.913a5.492,5.492,0,0,1-.635-3.614v-2.95s-.809-5.707-.924-8.591c-.074-1.847-.053-4.369-.03-5.941.015-.882.03-1.467.03-1.467l12.476-1.366a11.5,11.5,0,0,0,.226,1.948c.128.72.328,1.653.641,2.819a13.448,13.448,0,0,1,.347,5.828l-.117,4.221s1.1,2.822.867,3.794a8.486,8.486,0,0,0-.233,1.764s2.454,6.163,2.195,7.955a12.1,12.1,0,0,0,.808,4.616A7.331,7.331,0,0,1,800.715,421.444Z" transform="translate(-680.226 -344.387)" fill="#464353"/><path d="M852.05,509.8l3.8-.533S853.7,511.579,852.05,509.8Z" transform="translate(-738.694 -448.562)" opacity="0.05"/><path d="M870.053,484.14s.13,1.413-.693,1.944C869.36,486.084,870.832,485.842,870.053,484.14Z" transform="translate(-753.447 -427.333)" opacity="0.1"/><path d="M846.558,455.2s-3.175,2.748-4.33,2.52S846.558,455.2,846.558,455.2Z" transform="translate(-730.186 -402.886)" opacity="0.1"/><path d="M805.825,521s-2.412.576-2.484,1.594S805.825,521,805.825,521Z" transform="translate(-697.177 -458.471)" opacity="0.1"/><path d="M808.682,602.56s-3.407.668-2.44,1.122a15.933,15.933,0,0,0,2.556.82S809.9,604.563,808.682,602.56Z" transform="translate(-699.503 -527.369)" opacity="0.05"/><g transform="translate(103.225 42.835)" opacity="0.05"><path d="M800.05,611.628a.711.711,0,0,1-.312-.519l-.035.064s-.318.82.232,1.183c.062.042.123.084.177.124.1-.02.211-.036.316-.064C800.894,612.3,800.6,611.993,800.05,611.628Z" transform="translate(-797.225 -577.426)"/><path d="M831.379,609.5c.095-.09.092-.323.034-.621a1.819,1.819,0,0,0-.193.879A.764.764,0,0,1,831.379,609.5Z" transform="translate(-824.165 -575.542)"/><path d="M827.42,515.59a4.324,4.324,0,0,0-.23,1.116,4.657,4.657,0,0,1,.264-.767Z" transform="translate(-820.73 -496.735)"/><path d="M881.224,503.522a1.494,1.494,0,0,0,.031-.332c-.043.227-.072.436-.095.621C881.179,503.716,881.2,503.626,881.224,503.522Z" transform="translate(-866.73 -486.26)"/><path d="M827.731,581.445a2.038,2.038,0,0,0,.086-.675,2.394,2.394,0,0,0-.167.852A.831.831,0,0,1,827.731,581.445Z" transform="translate(-821.122 -551.796)"/><path d="M804.352,622a12.584,12.584,0,0,0-.4,1.863l-3.493.424a7.759,7.759,0,0,1-.781-1.552q-.056-.131-.1-.267c-.21.1-.3.329-.018,1a7.88,7.88,0,0,0,.783,1.552l3.493-.425a7.6,7.6,0,0,1,.606-2.278C804.623,622.137,804.513,622.045,804.352,622Z" transform="translate(-797.035 -586.625)"/><path d="M786.159,424.063s.028,2.094.318,2.215h0c.148-.346.244-.675.114-.73-.3-.121-.318-2.217-.318-2.217a14.126,14.126,0,0,1-.433-3.158,6.3,6.3,0,0,0-.462-2.276l-.2-1.913a5.491,5.491,0,0,1-.635-3.614v-2.95s-.809-5.707-.924-8.591c-.074-1.847-.053-4.369-.03-5.941,0-.284.009-.536.013-.748l-.1.011s-.016.584-.03,1.467c-.024,1.573-.046,4.094.03,5.94.115,2.885.923,8.593.923,8.593v2.95a5.5,5.5,0,0,0,.636,3.613l.2,1.913a6.336,6.336,0,0,1,.462,2.277A14.157,14.157,0,0,0,786.159,424.063Z" transform="translate(-783.448 -394.14)"/><path d="M867.436,623.612a3.655,3.655,0,0,1-.554-1.442c-.356.338.053,1.652.443,2.174.4.546,3.407.88,3.987-.123v-.578C870.526,624.455,867.817,624.129,867.436,623.612Z" transform="translate(-854.445 -586.769)"/><path d="M898.8,609.25a6.286,6.286,0,0,0-.4.911v.43a6.5,6.5,0,0,1,.3-.609,1.948,1.948,0,0,0,.127-.753S898.809,609.244,898.8,609.25Z" transform="translate(-881.424 -575.838)"/><path d="M863.073,588.037a6.167,6.167,0,0,0,.285-.722s-.492.121-1.272-.851a4.5,4.5,0,0,1-.518-2.914c-.148.517-.377,2.672.4,3.644A2.056,2.056,0,0,0,863.073,588.037Z" transform="translate(-849.904 -554.144)"/><path d="M832.981,478.21a17.02,17.02,0,0,1,.058,1.8,2.566,2.566,0,0,1,.059-.281,11.079,11.079,0,0,0,0-2.246,4.705,4.705,0,0,0-.2-1.61,20.4,20.4,0,0,1-.715-2.642,1.848,1.848,0,0,0-.4-1.154,5.373,5.373,0,0,1-.665-1.944,2.079,2.079,0,0,1-.3-1.306,2.728,2.728,0,0,0-.49-1.579l-.982-3.279-.924-2.459-.521,1.428s0,.18-.018.466l.422-1.16.924,2.454.982,3.279a2.728,2.728,0,0,1,.49,1.579,2.08,2.08,0,0,0,.3,1.306,5.356,5.356,0,0,0,.665,1.944,1.838,1.838,0,0,1,.4,1.154,20.765,20.765,0,0,0,.722,2.639A4.706,4.706,0,0,1,832.981,478.21Z" transform="translate(-821.318 -451.051)"/></g><path d="M862.459,193.719l-.217,1.108.013.494.009.363-1.205.13-.134-.262h0a11.876,11.876,0,0,0-.935-1.59c-.223-.2-.62-3.279-.148-3.1a1.284,1.284,0,0,1,.67.638S862.886,191.791,862.459,193.719Z" transform="translate(-745.147 -179.584)" fill="#ffcdd3"/><path d="M869.789,219.156l-1.205.13-.134-.262h0a1.026,1.026,0,0,1,1.329-.23Z" transform="translate(-752.672 -203.055)" opacity="0.1"/><path d="M869.693,220.383l-1.589.387-.034-.248-.09-.669a1.063,1.063,0,0,1,1.539-.22l.08.34Z" transform="translate(-752.271 -203.681)" fill="#6c63ff"/><path d="M683.183,181.065l-1.7.956-.148-.335c-.161-.356-.4-.891-.468-1.087-.1-.295-.808-.668-.808-.668-1.772-1.784.34-3.318.34-3.318,1.119-2.368,2.363.8,2.363.8a8.448,8.448,0,0,1,.052,1.784c-.123.112-.123.57-.123.57a7.218,7.218,0,0,1,.409,1.02C683.155,180.961,683.183,181.065,683.183,181.065Z" transform="translate(-591.501 -166.808)" fill="#ffcdd3"/><path d="M694.635,208.526l-1.7.956-.148-.335c.239-.211,1.088-.931,1.367-.9a1.944,1.944,0,0,0,.4.011C694.606,208.422,694.635,208.526,694.635,208.526Z" transform="translate(-602.953 -194.27)" opacity="0.1"/><path d="M695.072,209.731l-1.906.987-.038-.43-.027-.3s1.1-1,1.431-.956a1.652,1.652,0,0,0,.5,0l.022.36Z" transform="translate(-603.217 -194.936)" fill="#6c63ff"/><path d="M807.431,219.86s-8.311.986-6.758.455a2.155,2.155,0,0,0,1.6-1.894,4.76,4.76,0,0,0-.309-2.018,8.994,8.994,0,0,0-.738-1.579s6.35-3.673,5.082-.334a5.614,5.614,0,0,0-.36,1.582,4.687,4.687,0,0,0,.164,1.6A4.807,4.807,0,0,0,807.431,219.86Z" transform="translate(-694.739 -198.361)" fill="#ffcdd3"/><path d="M810.617,214.46a5.614,5.614,0,0,0-.36,1.582,2.81,2.81,0,0,1-2.1.494,3.579,3.579,0,0,1-1.881-.163,8.994,8.994,0,0,0-.738-1.579S811.889,211.12,810.617,214.46Z" transform="translate(-699.052 -198.335)" opacity="0.1"/><ellipse cx="3.436" cy="3.613" rx="3.436" ry="3.613" transform="translate(105.559 11.207)" fill="#ffcdd3"/><path d="M807.431,242.739s-8.311.986-6.758.455a2.155,2.155,0,0,0,1.6-1.894,4.567,4.567,0,0,1,1.772-.992,2.372,2.372,0,0,1,1.506-.026,2.1,2.1,0,0,1,.548.267A4.805,4.805,0,0,0,807.431,242.739Z" transform="translate(-694.739 -221.24)" opacity="0.1"/><path d="M870.213,223.252l-1.589.387-.034-.248a1.369,1.369,0,0,1,1.529-.55Z" transform="translate(-752.791 -206.551)" opacity="0.1"/><path d="M695.225,211.688l-1.906.987-.038-.43a13.569,13.569,0,0,1,1.92-.9Z" transform="translate(-603.371 -196.893)" opacity="0.1"/><path d="M796.331,387.918c-3.221.54-7.8,1.23-8.525,1a20.267,20.267,0,0,0-4.206-.112c.015-.882.03-1.467.03-1.467l12.476-1.366A11.505,11.505,0,0,0,796.331,387.918Z" transform="translate(-680.352 -344.404)" opacity="0.1"/><path d="M719.674,240.263s-10.6,1.913-11.736,1.552-6.978.029-6.978.029c-2.629,1.852-1.531-.88-1.531-.88a7.133,7.133,0,0,1,.087-2.58,16.5,16.5,0,0,0,.436-2.583,6.308,6.308,0,0,1,.26-2.248,18.094,18.094,0,0,0,.694-3.46s.288-2.065.26-2.52.086-1.731.086-1.731l.377-2.125c-2.166-.3-8.751-4.553-8.751-4.553-.318-1.427-2.772-4.766-2.772-4.766a3.66,3.66,0,0,0-.2-.82c-.173-.486,2.426-1.458,2.426-1.458s1.935,2.484,2.339,3.158a13.229,13.229,0,0,0,1.79,1.913,1.33,1.33,0,0,1,.635.087l.034.011h0a5.09,5.09,0,0,1,1.292.776,2.442,2.442,0,0,1,1.762.7s1.181-.183,1.387.03,1.212,0,1.212,0,1.01-2.246,1.675-1.594,3.484.621,3.484.621a4.029,4.029,0,0,1,1.861-1.087,2.381,2.381,0,0,1,1.506-.026,1.875,1.875,0,0,1,.591.31l1.715,1.761s.49-.669.433-.82.577-.273.577-.273.837-.273,1.155-.365.608.27.635.3a3.8,3.8,0,0,1-.148-1.335,1.624,1.624,0,0,0-.347-1.087c1.01-2.611,3.292-.425,3.292-.425a5.259,5.259,0,0,1,.03,1.973c-.23.546.23,1.7.173,2s.117.82.117,1.4a8.909,8.909,0,0,1-.462,2.155c-.167.486-1.559,1.579-1.559,1.579a7.141,7.141,0,0,1-.694,2.732c-.607,1-.226,4.426-.226,4.426a11.808,11.808,0,0,0,1.3,3.523C718.607,235.415,719.674,240.263,719.674,240.263Z" transform="translate(-600.485 -197.544)" fill="#3f3d56"/><path d="M778.594,254.625s-.318-1-.607-1.087a6.523,6.523,0,0,1-.837-.394l.186-.374s1.084.311,1.258.647A2.7,2.7,0,0,1,778.594,254.625Z" transform="translate(-674.855 -231.883)" opacity="0.1"/><path d="M732.449,246.133c-.058.311-2.629.576-2.629.576l1.3-1.369h0l.032.012h0A5.089,5.089,0,0,1,732.449,246.133Z" transform="translate(-634.514 -225.606)" opacity="0.1"/><ellipse cx="0.23" cy="0.242" rx="0.23" ry="0.242" transform="translate(90.267 16.118)" fill="#575988"/><ellipse cx="0.23" cy="0.242" rx="0.23" ry="0.242" transform="translate(90.562 16.604)" fill="#575988"/><ellipse cx="0.23" cy="0.242" rx="0.23" ry="0.242" transform="translate(90.852 17.052)" fill="#575988"/><ellipse cx="0.23" cy="0.242" rx="0.23" ry="0.242" transform="translate(91.154 17.537)" fill="#575988"/><ellipse cx="0.188" cy="0.197" rx="0.188" ry="0.197" transform="translate(118.42 17.555)" fill="#575988"/><ellipse cx="0.188" cy="0.197" rx="0.188" ry="0.197" transform="translate(118.45 18.004)" fill="#575988"/><ellipse cx="0.188" cy="0.197" rx="0.188" ry="0.197" transform="translate(118.475 18.451)" fill="#575988"/><path d="M787,317.719c-.028-.036,6.483,8.607,11.537,3.613C798.541,321.334,790.556,322.472,787,317.719Z" transform="translate(-683.25 -286.749)" opacity="0.1"/><path d="M761.7,346.66s3.9.112,4.3,1.29v1.226a.716.716,0,0,1-.725,0c-.393-.224-2.748-1.481-3.578-.876Z" transform="translate(-661.686 -311.197)" opacity="0.1"/><path d="M762.19,346.66s3.726.107,4.116,1.231v1.167a.684.684,0,0,1-.694,0c-.375-.211-2.627-1.411-3.422-.834Z" transform="translate(-662.104 -311.197)" fill="#3f3d56"/><path d="M776.1,289.38a13.355,13.355,0,0,0,1.511,2.725,10.42,10.42,0,0,0,2.363,2.4S776.165,289.942,776.1,289.38Z" transform="translate(-673.96 -262.809)" opacity="0.1"/><path d="M767.47,258.73s.65,2.95,2.324,3.951Z" transform="translate(-666.604 -236.918)" opacity="0.1"/><path d="M760.385,260.645c-.016-.054-.577,2.329,2.159,3.653C762.544,264.3,761.382,263.883,760.385,260.645Z" transform="translate(-660.516 -238.535)" opacity="0.1"/><path d="M875.9,247.9a19.578,19.578,0,0,1,1.729,1.366S876.727,247.837,875.9,247.9Z" transform="translate(-759.024 -227.767)" opacity="0.1"/><path d="M799.735,190.411a.583.583,0,0,0,.178.418.526.526,0,0,0,.413.146,6.555,6.555,0,0,0,3.1-.311,1.179,1.179,0,0,0,.473-.329,2.111,2.111,0,0,0,.275-.8,11.94,11.94,0,0,1,.634-1.534,5.38,5.38,0,0,0,.341-2.756,1.926,1.926,0,0,0-.263-.806c-.278-.418-.784-.587-1.152-.919s-.6-.84-1.034-1.087a1.9,1.9,0,0,0-1.3-.121,6.606,6.606,0,0,0-2.419.955,1.2,1.2,0,0,1-.809.289,1.091,1.091,0,0,1-.591-.48,3.517,3.517,0,0,0-.247,1.576.5.5,0,0,1-.168.487.954.954,0,0,0-.164,1.135c.111.138.282.214.39.356a1.509,1.509,0,0,1,.124.944.5.5,0,0,0,.077.32.428.428,0,0,0,.424.107,1.1,1.1,0,0,1,.452-.045.763.763,0,0,1,.393.311A6,6,0,0,1,799.735,190.411Z" transform="translate(-691.669 -172.317)" fill="#2d293d"/><g transform="translate(105.208 10.728)" opacity="0.1"><path d="M804.022,206.485a1.179,1.179,0,0,1-.473.329,6.647,6.647,0,0,1-3.1.31.7.7,0,0,1-.323-.076.769.769,0,0,1-.269-.489,5.818,5.818,0,0,0-.876-2.136.765.765,0,0,0-.393-.318,1.155,1.155,0,0,0-.452.045.428.428,0,0,1-.424-.106.5.5,0,0,1-.077-.32c0-.326.069-.691-.124-.944-.108-.141-.279-.217-.39-.357a.738.738,0,0,1-.066-.723.862.862,0,0,0-.049.967c.111.138.282.214.39.356a1.51,1.51,0,0,1,.124.944.5.5,0,0,0,.075.32.428.428,0,0,0,.425.107,1.1,1.1,0,0,1,.452-.045.763.763,0,0,1,.393.311,5.828,5.828,0,0,1,.876,2.138.788.788,0,0,0,.255.492.687.687,0,0,0,.325.075,6.535,6.535,0,0,0,3.1-.31,1.167,1.167,0,0,0,.473-.329.966.966,0,0,0,.148-.292A.078.078,0,0,1,804.022,206.485Z" transform="translate(-796.877 -199.469)"/><path d="M799.944,189.081a.538.538,0,0,0,.1-.183.712.712,0,0,0,0-.238,3.527,3.527,0,0,1,.161-1.307l-.019-.023a3.491,3.491,0,0,0-.247,1.574A1.173,1.173,0,0,1,799.944,189.081Z" transform="translate(-799.483 -187.33)"/></g><path d="M812.08,248.449s4.293.6,4.678-.079" transform="translate(-704.626 -228.166)" opacity="0.1"/><path d="M868.59,236.85s2.386,0,2.911.944" transform="translate(-752.791 -218.434)" opacity="0.1"/><path d="M940.786,765.181a3.68,3.68,0,0,1-2.577,1.012c-.242,0-.577.048-.579.3a.44.44,0,0,0,.071.208,2.393,2.393,0,0,0,1.329,1.1,4.474,4.474,0,0,0,1.608.107l1.573-.085c.3-.017.591-.033.886-.071s.617-.1.926-.155a11.524,11.524,0,0,1,2.291-.112.669.669,0,0,0,.564-.155c.121-.155.059-.452.013-.685-.094-.48,0-.983-.087-1.464a2.523,2.523,0,0,0-1.605-1.8c-.709-.283-1.964-.607-2.635-.135A17.86,17.86,0,0,0,940.786,765.181Z" transform="translate(-811.635 -662.908)" fill="#3f3d56"/><path d="M951.353,575.984c.139.694.778,1.225.8,1.933a3.1,3.1,0,0,1-.647,1.531,10.488,10.488,0,0,0-.66,1.571,24.5,24.5,0,0,1-1.938,4.052,3.345,3.345,0,0,0-.7,2.006,3.1,3.1,0,0,0,.335.959l1.108,2.313a6.9,6.9,0,0,1,.566,1.461c.1.439.1.894.161,1.341.174,1.419.808,2.847.433,4.223-.033.118-.148.261-.238.179a4.592,4.592,0,0,1,.632,2.257,3.3,3.3,0,0,0,.01,1.27,1.436,1.436,0,0,1,.173.5,3.345,3.345,0,0,1-.063.343.749.749,0,0,0,.552.7c.3.1.62.1.92.191a5.645,5.645,0,0,1,1.477,1.065,3.041,3.041,0,0,0,1.7.582.411.411,0,0,0,.251-.053.436.436,0,0,0,.139-.32,1.82,1.82,0,0,0-.608-1.543.685.685,0,0,1-.226-.248.629.629,0,0,1-.021-.278,21.994,21.994,0,0,0-.065-3.819,6.093,6.093,0,0,1-.058-1.216,5.216,5.216,0,0,0,.093-1.011,5.567,5.567,0,0,0-.3-.969,7.327,7.327,0,0,1-.148-1.8,16.554,16.554,0,0,0-.486-3.1,2.411,2.411,0,0,0-.459-1.121c-.23-.253-.6-.5-.515-.832a.99.99,0,0,1,.211-.331,1.377,1.377,0,0,0,.263-1.012.426.426,0,0,0,.5-.245,8.069,8.069,0,0,0,3.9-4.657,1.58,1.58,0,0,1,.174-.416,1.777,1.777,0,0,1,.713-.486,5.572,5.572,0,0,0,1.874-2.009,4.892,4.892,0,0,0,.724-1.456,5.009,5.009,0,0,0,.1-1.051l.046-1.824a1.034,1.034,0,0,0-.033-.357.9.9,0,0,0-.187-.289,3.291,3.291,0,0,0-1.84-1.043c-.473-.089-.956-.071-1.434-.113a16.99,16.99,0,0,0-2.77-.311,4.446,4.446,0,0,0-3.442,2.532C952.124,575.559,951.87,575.975,951.353,575.984Z" transform="translate(-820.641 -502.007)" fill="#464353"/><path d="M905.484,496.42a2.136,2.136,0,0,1-.106.831.546.546,0,0,1-.648.349c.075-.179-.124-.382-.31-.36a.59.59,0,0,0-.409.369,1.437,1.437,0,0,0-.118.843,3.574,3.574,0,0,1,.2,1.059c-.041.3-.25.595-.139.871a1.4,1.4,0,0,0,.267.337.985.985,0,0,1-.1,1.3l2.794.059a2.155,2.155,0,0,0,.347,1.428,8.551,8.551,0,0,0,6.386,4.383.585.585,0,0,0-.268.413.6.6,0,0,0,.134.48.758.758,0,0,0,.9.054,6.428,6.428,0,0,0,.768-.605,2.278,2.278,0,0,1,1.579-.447c.35.036.69.155,1.041.174,1.034.057,1.92-.725,2.915-1.045a6.494,6.494,0,0,0,2.156-.711.92.92,0,0,0,.4-.874,1.477,1.477,0,0,0-.3-.514,9.038,9.038,0,0,1-.808-1.591,9.5,9.5,0,0,0-2.019-2.844,18.189,18.189,0,0,0-2-1.6,3.385,3.385,0,0,0-.541-.343,5.9,5.9,0,0,1-.738-.31,4.08,4.08,0,0,1-.769-.91,11.542,11.542,0,0,0-2.087-1.526,4.943,4.943,0,0,0-1.409-1c-.266-.085-.548-.092-.814-.175-.6-.193-1.044-.756-1.636-.984a6.265,6.265,0,0,0-1.477-.2,3.358,3.358,0,0,1-1.543-.618,1.813,1.813,0,0,0-.492-.3c-.749-.239-.809,1.226-.886,1.734A17.554,17.554,0,0,0,905.484,496.42Z" transform="translate(-782.864 -434.304)" fill="#2dbb54"/><path d="M859.987,536.981c.126,1.431-.9,2.818-.6,4.22.064.3.186.582.23.885a3.5,3.5,0,0,1-.8,2.313l-3.869,5.969a3.728,3.728,0,0,1-.552.717c-.738.691-1.849.621-2.821.826a4.76,4.76,0,0,0-1.89.879.133.133,0,0,0-.024.179,1.6,1.6,0,0,0,1.4.694c.1.14,0,.348-.14.449-.207.155-.493.191-.535.562a.648.648,0,0,0,.071.373,1.1,1.1,0,0,0,.676.494,3.9,3.9,0,0,0,3.789-1.355c1-1.029,1.722-2.329,2.705-3.375.545-.581,1.164-1.076,1.725-1.638a20.649,20.649,0,0,0,2.829-3.849,4.352,4.352,0,0,0,.613-1.31c.1-.477.056-.959.176-1.421A5.275,5.275,0,0,1,863.9,541a5.45,5.45,0,0,0,1.054-3.434,3.287,3.287,0,0,0-1.911-2.849,1.639,1.639,0,0,0-1.071-.068,2.562,2.562,0,0,0-1.09.913l-.738.891a2.094,2.094,0,0,0-.415.685.743.743,0,0,0,.148.761" transform="translate(-736.638 -469.949)" fill="#fbbebe"/><path d="M918.561,511.9a2.047,2.047,0,0,0-1.427.466,2.15,2.15,0,0,0-.36.593,6.121,6.121,0,0,0-.713,2.36,11.315,11.315,0,0,0,.258,1.972,7.912,7.912,0,0,1-.161,1.656,10.618,10.618,0,0,0,2.035-.823,6.7,6.7,0,0,1,1.192-.651,3.438,3.438,0,0,1,2.2.45c.031-.425-.273-1.167-.241-1.594a1.861,1.861,0,0,1,.09-.528,3.238,3.238,0,0,1,.306-.511,2.175,2.175,0,0,0-.179-2.448,3.168,3.168,0,0,0-2.079-.932,8.557,8.557,0,0,0-1.452-.053" transform="translate(-793.25 -450.737)" fill="#2dbb54"/></svg>