<svg xmlns="http://www.w3.org/2000/svg" width="155" height="105.354" viewBox="0 0 155 105.354"><path d="M101.493,451.507l-27.638-10.03v-.142H27.786L0,451.507H.08v2.712H101.573v-2.712Z" transform="translate(0 -362.841)" fill="#e6e6e6"/><path d="M34.158,0C53.022,0,68.315,1.27,68.315,2.837S53.022,5.675,34.158,5.675,0,4.4,0,2.837,15.293,0,34.158,0Z" transform="translate(86.685 99.679)" fill="#efefef"/><path d="M725.5,442.773l-1.712,1.636s-4.638,3.854-2.485,5.268,4.553-4.255,4.553-4.255l.925-1.462Z" transform="translate(-622.157 -391.381)" fill="#9f616a"/><path d="M748.552,284.667l-2.419.58a19.352,19.352,0,0,0-.427,4.785,40.953,40.953,0,0,1-.557,6.626l-1.641,3.888-6.869,13.241,4.27,1.892,7.642-15.206.711-9.715Z" transform="translate(-635.289 -261.396)" fill="#efefef"/><path d="M7.574,0c4.183,0,7.574,3.668,7.574,8.192s-3.391,8.192-7.574,8.192S0,12.717,0,8.192,3.391,0,7.574,0Z" transform="translate(109.285 0)" fill="#303030"/><path d="M3.984,0A4.023,4.023,0,0,1,7.969,4.06,4.023,4.023,0,0,1,3.984,8.12,4.023,4.023,0,0,1,0,4.06,4.023,4.023,0,0,1,3.984,0Z" transform="translate(119.595 12.469)" fill="#303030"/><path d="M666.519,62.365l2.134,5.655-5.407,2.32-.475-1.1-1.66-3.833Z" transform="translate(-545.715 -51.273)" fill="#9f616a"/><path d="M802.32,380.594l1.992,9.57,2.7,21.459L805.023,431.2s-5.977,2.03-8.253-1.74l2.7-16.094-5.407-18.994-.854,18.7,1.423,16.239s-4.411,2.61-7.969,0l-2.419-32.189s-1.85-14.064,2.419-18.7Z" transform="translate(-674.258 -338.473)" fill="#303030"/><ellipse cx="4.767" cy="4.857" rx="4.767" ry="4.857" transform="translate(111.768 5.075)" fill="#9f616a"/><path d="M796.519,245.762l.466-1.514s4.295-.721,5.543-2.141l2.244,2.35s6.119,2.03,6.973,2.9-3.415,14.354-3.415,14.354,1,2.32-.712,3.335c0,0,2.561,3.915.569,4.35s-16.364-2.61-16.364-2.61-1-1.74,1.281-2.465c0,0-.854-2.03.142-2.755s.142-4.785.142-4.785-2.988-6.09-2.561-6.525S796.519,245.762,796.519,245.762Z" transform="translate(-679.984 -226.405)" fill="#efefef"/><path d="M884.465,458.366l-.142,1.16s.142,6.96-2.419,6.67-1-7.1-1-7.1l.427-1.595Z" transform="translate(-753.984 -403.486)" fill="#9f616a"/><path d="M855.149,665.144s-.569,5.8.427,6.235,7.684,4.06,5.692,5.655-8.68-2.61-9.392-1.885-2.988.145-3.13-1.16a7.766,7.766,0,0,1,1.281-5.075c1.138-1.45,1.138-4.35,1.138-4.35Z" transform="translate(-727.799 -573.725)" fill="#303030"/><path d="M809.248,655.6l1,4.785s2.134,4.785.285,5.8-2.134,1.16-2.277,1.74-3.984,3.625-5.123,1.3,2.988-5.655,2.988-5.655l.712-1.595-.712-5.655Z" transform="translate(-690.009 -566.353)" fill="#303030"/><path d="M794.963,175.041c3-2.037,3.892-2.524,7.326-1.737l.206-5.105-8.875,1.9Z" transform="translate(-682.324 -165.642)" fill="#2f2e41"/><path d="M885.358,271.769l1.423-.145a23.372,23.372,0,0,1,1.423,5.655v12.469l-2.277,16.384-4.411-.725,2.419-14.644-.711-8.845Z" transform="translate(-754.877 -250.672)" fill="#efefef"/><path d="M0,0H2.413V57.693H0Z" transform="translate(143.676 44.257)" fill="#303030"/><path d="M0,0H13.366V18.159H0Z" transform="translate(138.2 28.178)" fill="#303030"/><path d="M965.22,341.779a.419.419,0,0,0-.24.082l-.761-6.329a1.058,1.058,0,0,0-1.043-.941h-5.195a1.058,1.058,0,0,0-1.043.941l-.761,6.329a.419.419,0,0,0-.24-.082c-.41,0-.743.677-.743,1.513s.333,1.513.743,1.513c.312,0,.578-.391.688-.946h7.906c.11.554.377.946.688.946.41,0,.742-.677.742-1.513S965.63,341.779,965.22,341.779Zm-7.054.378a.946.946,0,1,1,.928-.946.937.937,0,0,1-.928.946Zm4.641,0a.946.946,0,1,1,.928-.946.937.937,0,0,1-.928.946Zm1.114-3.613a.582.582,0,0,1-.576.587h-5.532a.581.581,0,0,1-.576-.587v-1.853a.581.581,0,0,1,.576-.587h5.531a.581.581,0,0,1,.576.587Z" transform="translate(-815.696 -302.44)" fill="#2dbb54"/><path d="M699,429.685l.542,1.072a.043.043,0,0,1-.018.057l-.026.014,2.822,5.587a.662.662,0,0,1-.278.883l-3.426,1.8a.637.637,0,0,1-.866-.283l-2.723-5.391-.019.01a.029.029,0,0,1-.039-.013l-.308-.61a.03.03,0,0,1,.013-.04l.019-.01-.116-.23-.019.01a.03.03,0,0,1-.041-.014l-.3-.6a.031.031,0,0,1,.013-.042l.019-.01-.158-.314-.019.01a.027.027,0,0,1-.036-.012l-.166-.329a.028.028,0,0,1,.012-.037l.019-.01-.336-.665a.661.661,0,0,1,.278-.883l3.426-1.8a.638.638,0,0,1,.866.283l.79,1.564.026-.014A.041.041,0,0,1,699,429.685Z" transform="translate(-599.666 -379.039)" fill="#3f3d56"/><path d="M699.682,430.172l4.157,8.231a.42.42,0,0,1-.176.56l-3.279,1.72a.4.4,0,0,1-.311.027.41.41,0,0,1-.238-.206l-4.157-8.231a.42.42,0,0,1,.176-.56l.491-.257.032.064a.333.333,0,0,0,.453.148l1.668-.875a.346.346,0,0,0,.145-.461l-.032-.064.523-.274A.4.4,0,0,1,699.682,430.172Z" transform="translate(-601.439 -380.836)" fill="#2dbb54"/><path d="M368.357,420.515a1.585,1.585,0,0,0-.909.312l-2.88-23.967a4.007,4.007,0,0,0-3.951-3.563H340.951A4.007,4.007,0,0,0,337,396.86l-2.88,23.967a1.585,1.585,0,0,0-.909-.312c-1.553,0-2.812,2.565-2.812,5.73s1.259,5.73,2.812,5.73c1.18,0,2.188-1.482,2.605-3.581h29.936c.417,2.1,1.426,3.581,2.605,3.581,1.553,0,2.812-2.565,2.812-5.73S369.91,420.515,368.357,420.515Zm-26.711,1.433a3.582,3.582,0,1,1,3.515-3.581,3.548,3.548,0,0,1-3.515,3.581Zm17.573,0a3.582,3.582,0,1,1,3.515-3.581,3.548,3.548,0,0,1-3.515,3.581Zm4.218-13.682a2.2,2.2,0,0,1-2.181,2.222H340.312a2.2,2.2,0,0,1-2.181-2.222v-7.016a2.2,2.2,0,0,1,2.181-2.222h20.944a2.2,2.2,0,0,1,2.181,2.222Z" transform="translate(-299.958 -350.705)" fill="#303030"/><path d="M277.457,234.7h-7.363l1.578-2.412h4.207Z" transform="translate(-222.949 -190.976)" fill="#2dbb54"/><ellipse cx="8.254" cy="8.411" rx="8.254" ry="8.411" transform="translate(41.679 21.022)" fill="#2dbb54"/><path d="M269.882,152.66l-2.471-3.237,1.437-1.139,1.17,1.533,3.952-4.251,1.321,1.276Z" transform="translate(-220.735 -119.676)" fill="#fff"/><rect width="1.664" height="1.017" transform="translate(49.915 78.735)" fill="#fff"/><path d="M443.626,621.109h-1.664v-2.19h1.664Zm0-4.38h-1.664v-2.19h1.664Z" transform="translate(-392.047 -532.599)" fill="#fff"/><rect width="1.664" height="1.017" transform="translate(49.915 90.701)" fill="#fff"/></svg>